#N canvas 0 50 1000 600 10;
#X obj 25 25 loadbang;
#X msg 25 50 pd dsp 1;
#X msg 25 100 1 \;  note 440 0.8  80 0 1.0 320;
#X msg 25 140 1 \;  note 440 0.0  80 0 1.0 320;
#X obj 425 25 r note;
#X obj 425 50 unpack 0 0  0 0 0 0;
#X obj 425 75 t b f;
#X obj 425 100 f;
#X obj 425 125 moses 1e-12;
#X obj 425 150 expr $f2;
#X obj 425 200 osc~;
#X obj 550 125 pack 0 0 0 0 0;
#N canvas 0 0 300 180 (subpatch) 0;
#X obj 25 25 inlet;
#X obj 25 50 unpack 0 0 0 0 0;
#X obj 25 75 moses 1e-12;
#X obj 25 125 f;
#X obj 75 125 t b b;
#X msg 125 125 1;
#X obj 25 150 expr sqrt($f2);
#X obj 25 175 pack 0 0 0;
#X msg 25 200 0 \,  1 \$2 \,  \$1 \$3 \$2;
#X obj 25 225 vline~;
#X obj 325 125 t b;
#X obj 375 125 f;
#X msg 325 150 0 \$1;
#X obj 325 175 vline~;
#X obj 125 250 *~;
#X obj 125 275 *~;
#X obj 125 300 *~;
#X obj 125 325 outlet~;
#X connect 0 0 1 0;
#X connect 1 0 2 0;
#X connect 2 1 3 0;
#X connect 3 0 4 0;
#X connect 4 1 5 0;
#X connect 4 0 6 0;
#X connect 1 3 6 1;
#X connect 6 0 7 0;
#X connect 1 1 7 1;
#X connect 1 2 7 2;
#X connect 7 0 8 0;
#X connect 8 0 9 0;
#X connect 2 0 10 0;
#X connect 10 0 11 0;
#X connect 1 4 11 1;
#X connect 11 0 12 0;
#X connect 5 0 13 0;
#X connect 12 0 13 0;
#X connect 9 0 14 0;
#X connect 13 0 14 1;
#X connect 14 0 15 0;
#X connect 3 0 15 1;
#X connect 15 0 16 0;
#X connect 15 0 16 1;
#X connect 16 0 17 0;
#X restore 550 150 pd envelope;
#X obj 550 175 *~;
#X obj 550 200 dac~;
#X connect 0 0 1 0;
#X connect 4 0 5 0;
#X connect 5 0 6 0;
#X connect 6 0 7 0;
#X connect 5 1 7 1;
#X connect 7 0 8 0;
#X connect 8 1 9 0;
#X connect 6 1 9 1;
#X connect 9 0 10 0;
#X connect 5 1 11 0;
#X connect 5 2 11 1;
#X connect 5 3 11 2;
#X connect 5 4 11 3;
#X connect 5 5 11 4;
#X connect 11 0 12 0;
#X connect 10 0 13 0;
#X connect 12 0 13 1;
#X connect 13 0 14 0;
#X connect 13 0 14 1;